<svg xmlns="http://www.w3.org/2000/svg" width="14" height="14" viewBox="0 0 14 14"><path d="M 6.8417969 0 C 6.5080632 0.0089554703 6.214521 0.24656385 6.1503906 0.58789062 L 5.8476562 2.1933594 C 4.6012255 2.2351741 3.5074523 3.1334887 3.2675781 4.4101562 L 8.6171875 5.4160156 C 8.8407092 4.2264228 8.2526189 3.0728712 7.2441406 2.5234375 L 7.4375 1.5 L 14 1.5 L 14 0 L 6.8417969 0 z"/><circle cx="5.348" cy="7.819" r=".855"/><circle cx="4.883" cy="10.428" r=".855"/><circle cx="4.332" cy="13.04" r=".855"/><circle cx="7.966" cy="7.773" r=".855"/><circle cx="7.925" cy="10.441" r=".855"/><circle cx="7.987" cy="13.145" r=".855"/><circle cx="2.988" cy="6.876" r=".855"/><circle cx="1.91" cy="9.32" r=".855"/><circle cx=".855" cy="11.78" r=".855"/></svg>