<svg xmlns="http://www.w3.org/2000/svg" xmlns:svg="http://www.w3.org/2000/svg" id="svg2" version="1.1"><path d="M 3.4921875 -0.0078125 A 0.50005 0.50005 0 0 0 3 0.5 L 3 5 L 1 5 L 1 1.5 A 0.50005 0.50005 0 0 0 0.4921875 0.9921875 A 0.50005 0.50005 0 0 0 0 1.5 L 0 5.5 A 0.50005 0.50005 0 0 0 0.5 6 L 3 6 L 3 8 L 3 12 L 4 12 L 4 9 L 6.5 9 A 0.50005 0.50005 0 0 0 7 8.5 L 7 3.5 A 0.50005 0.50005 0 0 0 6.4921875 2.9921875 A 0.50005 0.50005 0 0 0 6 3.5 L 6 8 L 4 8 L 4 1 L 4 0.5 A 0.50005 0.50005 0 0 0 3.4921875 -0.0078125 z"/></svg>