<svg xmlns="http://www.w3.org/2000/svg" xmlns:svg="http://www.w3.org/2000/svg" id="svg2" version="1.1"><path d="M 3.5078125,-0.0078125 A 0.50005,0.50005 0 0 1 4,0.5 L 4,5 6,5 6,1.5 A 0.50005,0.50005 0 0 1 6.5078125,0.9921875 0.50005,0.50005 0 0 1 7,1.5 l 0,4 A 0.50005,0.50005 0 0 1 6.5,6 L 4,6 4,8 4,12 3,12 3,9 0.50000001,9 A 0.50005,0.50005 0 0 1 0,8.5 l 0,-5 A 0.50005,0.50005 0 0 1 0.50781251,2.9921875 0.50005,0.50005 0 0 1 1,3.5 L 1,8 3,8 3,1 3,0.5 a 0.50005,0.50005 0 0 1 0.5078125,-0.5078125 z"/></svg>